<svg width="1200" height="153" viewBox="0 0 1200 153" fill="none" xmlns="http://www.w3.org/2000/svg">
<rect width="1200" height="153" fill="white"/>
<g clip-path="url(#clip0_259_107)">
<path d="M108.917 7.92472C107.96 7.44689 106.851 8.15084 106.851 9.21669V27.3943C106.851 28.6941 108.429 29.3451 109.352 28.4259L120.596 17.2281C121.216 16.6107 121.157 15.592 120.457 15.0658C116.789 12.3064 112.924 9.92603 108.917 7.92472Z" fill="black"/>
<path d="M88.3697 1.15012C89.0608 1.27187 89.5582 1.87415 89.5582 2.57306V47.5341C89.5582 47.921 89.4039 48.2921 89.1291 48.5658L74.3746 63.2598C73.4517 64.1789 71.8736 63.528 71.8736 62.2281V1.46915C71.8736 0.688334 72.4909 0.0443914 73.2747 0.0244881C78.3233 -0.103719 83.3825 0.271492 88.3697 1.15012Z" fill="black"/>
<path d="M54.1517 83.3997C54.4265 83.1261 54.5808 82.755 54.5808 82.368L54.5808 4.78824C54.5808 3.81981 53.6507 3.12007 52.7225 3.40873C47.4069 5.06181 42.2391 7.31613 37.3267 10.1717C36.8819 10.4303 36.6119 10.9066 36.6119 11.4196L36.6119 97.3452C36.6119 98.6451 38.1899 99.296 39.1128 98.3769L54.1517 83.3997Z" fill="black"/>
<path d="M16.8373 27.6572C17.6848 26.6212 19.319 27.2341 19.319 28.5705L19.3191 117.485C19.3191 117.872 19.1647 118.243 18.89 118.517L17.299 120.101C16.6791 120.719 15.6541 120.657 15.1258 119.96C-5.59715 92.6317 -5.02665 54.3847 16.8373 27.6572Z" fill="black"/>
<path d="M87.6713 77.8954C86.3661 77.8954 85.7125 76.3239 86.6354 75.4047L101.39 60.7107C101.665 60.4371 102.037 60.2834 102.426 60.2834H147.767C148.466 60.2834 149.07 60.7755 149.194 61.4609C150.099 66.4259 150.497 71.4643 150.39 76.494C150.374 77.277 149.726 77.8954 148.939 77.8954L87.6713 77.8954Z" fill="black"/>
<path d="M121.613 40.5708C120.69 41.49 121.344 43.0615 122.649 43.0615H140.993C142.066 43.0615 142.773 41.9511 142.287 40.9981C140.251 37.0031 137.831 33.1521 135.029 29.499C134.499 28.8077 133.48 28.752 132.863 29.3671L121.613 40.5708Z" fill="black"/>
<path d="M67.4485 95.1173C67.0599 95.1173 66.6873 95.271 66.4126 95.5446L51.3737 110.522C50.4508 111.441 51.1044 113.012 52.4096 113.012H139.125C139.642 113.012 140.123 112.741 140.381 112.294C143.218 107.399 145.452 102.253 147.085 96.962C147.37 96.0388 146.667 95.1173 145.698 95.1173H67.4485Z" fill="black"/>
<path d="M29.6234 134.477C28.9292 133.949 28.8704 132.933 29.4881 132.318L31.1508 130.662C31.4256 130.388 31.7982 130.234 32.1868 130.234H122.104C123.441 130.234 124.06 131.853 123.028 132.701C96.0668 154.878 57.2195 155.47 29.6234 134.477Z" fill="black"/>
<path d="M343.788 92.5003C342.486 104.432 338.254 115.001 331.091 124.209C324.059 133.287 314.813 140.355 303.354 145.413C291.894 150.471 278.807 153 264.092 153C247.684 153 233.294 149.823 220.923 143.468C208.552 137.113 198.915 128.294 192.013 117.011C185.112 105.599 181.661 92.3706 181.661 77.3268C181.661 62.2829 185.112 49.1195 192.013 37.8366C198.915 26.424 208.552 17.5404 220.923 11.1856C233.294 4.83089 247.684 1.65352 264.092 1.65352C278.807 1.65352 291.894 4.18244 303.354 9.2403C314.813 14.2981 324.059 21.3662 331.091 30.4444C338.254 39.5226 342.486 50.0922 343.788 62.1532H317.809C316.376 54.3719 313.251 47.6929 308.433 42.1163C303.745 36.5397 297.624 32.26 290.071 29.2772C282.518 26.1646 273.793 24.6084 263.896 24.6084C252.437 24.6084 242.475 26.7482 234.01 31.028C225.676 35.3077 219.23 41.403 214.672 49.314C210.114 57.225 207.835 66.5626 207.835 77.3268C207.835 88.0909 210.114 97.4285 214.672 105.339C219.23 113.25 225.676 119.346 234.01 123.626C242.475 127.905 252.437 130.045 263.896 130.045C273.793 130.045 282.518 128.554 290.071 125.571C297.624 122.588 303.745 118.308 308.433 112.732C313.251 107.025 316.376 100.282 317.809 92.5003H343.788Z" fill="black"/>
<path d="M380.302 116.817V95.6128H482.657V116.817H380.302ZM448.278 4.37698L518.598 150.277H491.056L427.182 14.1036H437.144L373.27 150.277H345.728L416.048 4.37698H448.278Z" fill="black"/>
<path d="M672.212 134.714L661.664 135.881V4.37698H686.667V150.277H653.85L551.105 18.7724L561.457 17.6052V150.277H536.455V4.37698H570.052L672.212 134.714Z" fill="black"/>
<path d="M795.57 153C778.901 153 764.251 149.823 751.62 143.468C738.988 137.113 729.156 128.294 722.124 117.011C715.092 105.599 711.576 92.3706 711.576 77.3268C711.576 62.2829 715.092 49.1195 722.124 37.8366C729.156 26.424 738.988 17.5404 751.62 11.1856C764.251 4.83089 778.901 1.65352 795.57 1.65352C812.238 1.65352 826.888 4.83089 839.52 11.1856C852.152 17.5404 861.984 26.424 869.016 37.8366C876.048 49.1195 879.564 62.2829 879.564 77.3268C879.564 92.3706 876.048 105.599 869.016 117.011C861.984 128.294 852.152 137.113 839.52 143.468C826.888 149.823 812.238 153 795.57 153ZM795.57 130.045C807.42 130.045 817.643 127.905 826.237 123.626C834.832 119.346 841.473 113.25 846.161 105.339C850.98 97.4285 853.389 88.0909 853.389 77.3268C853.389 66.5626 850.98 57.225 846.161 49.314C841.473 41.403 834.832 35.3077 826.237 31.028C817.643 26.7482 807.42 24.6084 795.57 24.6084C783.85 24.6084 773.627 26.7482 764.902 31.028C756.308 35.3077 749.601 41.403 744.783 49.314C740.095 57.225 737.751 66.5626 737.751 77.3268C737.751 88.0909 740.095 97.4285 744.783 105.339C749.601 113.25 756.308 119.346 764.902 123.626C773.627 127.905 783.85 130.045 795.57 130.045Z" fill="black"/>
<path d="M982.161 4.37698C993.1 4.37698 1002.54 6.3223 1010.48 10.213C1018.56 14.1036 1024.74 19.5505 1029.04 26.5537C1033.47 33.4272 1035.68 41.4031 1035.68 50.4812C1035.68 59.5594 1033.47 67.6001 1029.04 74.6033C1024.74 81.4768 1018.56 86.8589 1010.48 90.7495C1002.54 94.6402 993.1 96.5855 982.161 96.5855H916.334V74.4088H981.185C990.04 74.4088 996.942 72.2689 1001.89 67.9892C1006.97 63.7095 1009.51 57.8735 1009.51 50.4812C1009.51 43.089 1006.97 37.253 1001.89 32.9733C996.942 28.6936 990.04 26.5537 981.185 26.5537H918.873L930.398 13.7146V150.277H904.614V4.37698H982.161Z" fill="black"/>
<path d="M1105.26 150.277V80.6338H1131.05V150.277H1105.26ZM1036.11 4.37698H1065.22L1124.99 79.0776H1111.12L1170.9 4.37698H1200L1126.36 96.391L1109.95 96.5855L1036.11 4.37698Z" fill="black"/>
</g>
<defs>
<clipPath id="clip0_259_107">
<rect width="1200" height="153" fill="white"/>
</clipPath>
</defs>
</svg>
