<svg width="165" height="30" viewBox="0 0 165 30" fill="none" xmlns="http://www.w3.org/2000/svg">
<path d="M6.82354 2.71647L4.72887 21.6455C4.64359 22.4212 4.29563 23.146 3.74273 23.6975L3.27786 24.1624C-1.43136 18.3034 -1.06552 9.71429 4.3699 4.27887C5.03282 3.61733 5.74388 3.03005 6.48795 2.51842C6.63924 2.41389 6.84279 2.53355 6.82216 2.71509L6.82354 2.71647Z" fill="#4BB14B"/>
<path d="M8.13808 25.0203L27.0355 22.9243C27.2184 22.9037 27.3367 23.1072 27.2335 23.2585C26.7219 24.0053 26.1333 24.7164 25.4703 25.3793C20.0404 30.8092 11.4637 31.1778 5.60742 26.4865L6.08742 26.0065C6.63894 25.455 7.36375 25.107 8.13945 25.0203H8.13808Z" fill="#4BB14B"/>
<path d="M10.9401 16.5015L7.86621 19.5754L9.943 0.893929C9.95263 0.811408 10.009 0.739889 10.0874 0.713758C11.1203 0.358915 12.1876 0.120979 13.2645 0.00132245C13.3993 -0.0138065 13.5134 0.103099 13.4983 0.237884L11.9263 14.4467C11.841 15.2224 11.493 15.9472 10.9401 16.4987V16.5015Z" fill="#4BB14B"/>
<path d="M18.1403 9.30449L15.0664 12.3784L16.4184 0.201001C16.4308 0.084096 16.5367 -0.00255152 16.6549 0.0112021C17.681 0.129483 18.696 0.355041 19.6835 0.686503C19.7798 0.718136 19.8389 0.814411 19.8279 0.914812L19.1265 7.25108C19.0412 8.02679 18.6932 8.7516 18.1403 9.30312V9.30449Z" fill="#4BB14B"/>
<path d="M27.3704 7.17549L23.0669 7.65273C22.5071 7.71463 22.0354 7.2415 22.0973 6.68311L22.5759 2.38099C22.5938 2.2242 22.7684 2.13893 22.9019 2.22282C23.8137 2.80185 24.6747 3.4854 25.4696 4.28173C26.2646 5.07669 26.9523 5.94041 27.5286 6.85228C27.6125 6.98431 27.5258 7.16036 27.369 7.17824L27.3704 7.17549Z" fill="#4BB14B"/>
<path d="M29.5483 13.3314L17.4121 14.6792L20.4819 11.6094C21.0334 11.0579 21.7582 10.71 22.5339 10.6233L28.8358 9.92463C28.9362 9.91362 29.0311 9.97414 29.0641 10.069C29.3956 11.0565 29.6212 12.0688 29.7394 13.0948C29.7532 13.2117 29.6665 13.3176 29.5496 13.3314H29.5483Z" fill="#4BB14B"/>
<path d="M29.7463 16.4848C29.628 17.5617 29.3901 18.6289 29.0366 19.6618C29.0091 19.7402 28.939 19.7966 28.8564 19.8063L10.2148 21.8762L13.2846 18.8091C13.8362 18.2576 14.5596 17.9096 15.3353 17.8244L29.5097 16.2523C29.6445 16.2372 29.7614 16.3514 29.7463 16.4861V16.4848Z" fill="#4BB14B"/>
<path d="M6.82354 2.71647L4.72887 21.6455C4.64359 22.4212 4.29563 23.146 3.74273 23.6975L3.27786 24.1624C-1.43136 18.3034 -1.06552 9.71429 4.3699 4.27887C5.03282 3.61733 5.74388 3.03005 6.48795 2.51842C6.63924 2.41389 6.84279 2.53355 6.82216 2.71509L6.82354 2.71647Z" fill="#4BB14B"/>
<path d="M8.13808 25.0203L27.0355 22.9243C27.2184 22.9037 27.3367 23.1072 27.2335 23.2585C26.7219 24.0053 26.1333 24.7164 25.4703 25.3793C20.0404 30.8092 11.4637 31.1778 5.60742 26.4865L6.08742 26.0065C6.63894 25.455 7.36375 25.107 8.13945 25.0203H8.13808Z" fill="#4BB14B"/>
<path d="M18.1403 9.30449L15.0664 12.3784L16.4184 0.201001C16.4308 0.084096 16.5367 -0.00255152 16.6549 0.0112021C17.681 0.129483 18.696 0.355041 19.6835 0.686503C19.7798 0.718136 19.8389 0.814411 19.8279 0.914812L19.1265 7.25108C19.0412 8.02679 18.6932 8.7516 18.1403 9.30312V9.30449Z" fill="#4BB14B"/>
<path d="M27.3704 7.17549L23.0669 7.65273C22.5071 7.71463 22.0354 7.2415 22.0973 6.68311L22.5759 2.38099C22.5938 2.2242 22.7684 2.13893 22.9019 2.22282C23.8137 2.80185 24.6747 3.4854 25.4696 4.28173C26.2646 5.07669 26.9523 5.94041 27.5286 6.85228C27.6125 6.98431 27.5258 7.16036 27.369 7.17824L27.3704 7.17549Z" fill="#4BB14B"/>
<path d="M29.5483 13.3314L17.4121 14.6792L20.4819 11.6094C21.0334 11.0579 21.7582 10.71 22.5339 10.6233L28.8358 9.92463C28.9362 9.91362 29.0311 9.97414 29.0641 10.069C29.3956 11.0565 29.6212 12.0688 29.7394 13.0948C29.7532 13.2117 29.6665 13.3176 29.5496 13.3314H29.5483Z" fill="#4BB14B"/>
<path d="M29.7463 16.4848C29.628 17.5617 29.3901 18.6289 29.0366 19.6618C29.0091 19.7402 28.939 19.7966 28.8564 19.8063L10.2148 21.8762L13.2846 18.8091C13.8362 18.2576 14.5596 17.9096 15.3353 17.8244L29.5097 16.2523C29.6445 16.2372 29.7614 16.3514 29.7463 16.4861V16.4848Z" fill="#4BB14B"/>
<path d="M54.3477 18.002H57.3873C57.4891 18.002 57.5633 18.101 57.5344 18.1973C55.7946 23.993 47.8932 25.5169 42.803 22.9711C39.6864 21.3854 37.9769 18.4338 38.0002 14.895C37.9782 11.3452 39.7084 8.39511 42.803 6.80794C47.8712 4.26216 55.8152 5.79706 57.5344 11.6052C57.5633 11.7028 57.4877 11.8005 57.3873 11.8005H54.3574C54.2982 11.8005 54.246 11.7661 54.2212 11.7125C53.6463 10.4801 52.6093 9.55728 51.2546 9.01539C49.3249 8.1943 46.229 8.2617 44.3984 9.23682C42.246 10.3344 41.1924 12.4208 41.2034 14.8937C41.1924 17.3679 42.246 19.442 44.3984 20.5505C46.229 21.527 49.3236 21.571 51.2546 20.783C52.6203 20.2521 53.6463 19.3196 54.2102 18.0872C54.235 18.0336 54.2872 17.9992 54.3464 17.9992L54.3477 18.002Z" fill="white"/>
<path d="M67.1866 6.06232L58.7377 23.5913C58.6896 23.6917 58.7625 23.8086 58.8739 23.8086H61.9024C61.9616 23.8086 62.0152 23.7742 62.04 23.7205L63.1361 21.3852C63.6134 20.3688 64.6353 19.7182 65.7589 19.7182H74.4787L76.3561 23.7205C76.3808 23.7742 76.4345 23.8086 76.4936 23.8086H79.5221C79.6335 23.8086 79.7078 23.6917 79.6583 23.5913L71.2095 6.06232C71.1847 6.01006 71.1311 5.97705 71.0733 5.97705H67.3241C67.2663 5.97705 67.2127 6.01006 67.1879 6.06232H67.1866ZM65.1332 17.1271L69.1973 8.46232L73.2615 17.1271H65.1332Z" fill="white"/>
<path d="M98.1888 20.2619L87.9176 7.15888C87.3317 6.41206 86.4363 5.97607 85.4873 5.97607H83.0351C82.9512 5.97607 82.8838 6.04347 82.8838 6.12736V23.6563C82.8838 23.7402 82.9512 23.8076 83.0351 23.8076H85.7872C85.8711 23.8076 85.9385 23.7402 85.9385 23.6563V9.35395L96.3045 22.622C96.8891 23.3702 97.7872 23.809 98.7375 23.809H101.091C101.175 23.809 101.242 23.7416 101.242 23.6577V6.12736C101.242 6.04347 101.175 5.97607 101.091 5.97607H98.3387C98.2548 5.97607 98.1874 6.04347 98.1874 6.12736V20.2619H98.1888Z" fill="white"/>
<path d="M120.026 6.80813C113.634 3.69019 104.214 6.77099 104.389 14.8925C104.199 23.0153 113.636 26.0948 120.028 22.9768C126.565 19.9634 126.54 9.82566 120.028 6.80813H120.026ZM120.838 18.3171C118.446 22.4074 110.866 22.3827 108.446 18.3171C107.872 17.3502 107.586 16.2087 107.586 14.8925C107.468 10.8572 110.755 8.33065 114.653 8.44893C117.256 8.44618 119.544 9.31953 120.836 11.4692C122.015 13.3177 122.015 16.4686 120.836 18.3171H120.838Z" fill="white"/>
<path d="M140.998 6.68989C140.027 6.21401 138.873 5.97607 137.536 5.97607H128.21C128.126 5.97607 128.059 6.04347 128.059 6.12736V23.6563C128.059 23.7402 128.126 23.8076 128.21 23.8076H131.058C131.142 23.8076 131.21 23.7402 131.21 23.6563V19.1589C131.21 18.1026 132.066 17.2458 133.123 17.2458H137.536C138.873 17.2458 140.027 17.0078 140.998 16.5319C141.985 16.0561 142.741 15.3986 143.266 14.5583C143.808 13.7028 144.077 12.7195 144.077 11.6095C144.077 10.4996 143.808 9.5245 143.266 8.68553C142.741 7.83006 141.985 7.16438 140.998 6.68851V6.68989ZM139.949 13.751C139.343 14.2736 138.5 14.5363 137.418 14.5363H131.211V8.6869H137.418C138.5 8.6869 139.343 8.94822 139.949 9.47223C140.569 9.99487 140.88 10.7087 140.88 11.6123C140.88 12.5159 140.569 13.2297 139.949 13.7523V13.751Z" fill="white"/>
<path d="M164.847 5.97607H161.68C161.633 5.97607 161.59 5.9967 161.561 6.03246L155.148 14.0467L148.736 6.03246C148.707 5.9967 148.663 5.97607 148.618 5.97607H145.449C145.321 5.97607 145.251 6.12324 145.331 6.22226L152.73 15.4619C153.284 16.1537 153.586 17.0133 153.586 17.899V23.6563C153.586 23.7402 153.653 23.8076 153.737 23.8076H156.585C156.669 23.8076 156.737 23.7402 156.737 23.6563V17.8743C156.737 16.9886 157.038 16.129 157.592 15.4372L164.967 6.22226C165.046 6.12324 164.975 5.97607 164.848 5.97607H164.847Z" fill="white"/>
</svg>
